<svg xmlns="http://www.w3.org/2000/svg" xmlns:ns1="http://sozi.baierouge.fr" xmlns:svg="http://www.w3.org/2000/svg" xmlns:xlink="http://www.w3.org/1999/xlink" id="svg11300" viewBox="0 0 48 48"><defs id="defs3"><linearGradient id="linearGradient3041"><stop id="stop3043" style="stop-color:#000" offset="0"/><stop id="stop3045" style="stop-color:#000;stop-opacity:0" offset="1"/></linearGradient><radialGradient id="radialGradient3047" cx="24.812" cy="39.125" r="17.688" gradientTransform="matrix(1 0 0 .37456 7.1943e-15 24.47)" gradientUnits="userSpaceOnUse" xlink:href="#linearGradient3041"/><linearGradient id="linearGradient3055" x1="19.648" x2="20.631" y1="42.254" y2="6.776" gradientTransform="matrix(.87827 0 0 .87827 2.537 4.9677)" gradientUnits="userSpaceOnUse"><stop id="stop3051" style="stop-color:#b6b6b6" offset="0"/><stop id="stop2262" style="stop-color:#f2f2f2" offset=".5"/><stop id="stop2264" style="stop-color:#fafafa" offset=".676"/><stop id="stop2268" style="stop-color:#d8d8d8" offset=".841"/><stop id="stop2266" style="stop-color:#f2f2f2" offset=".875"/><stop id="stop3053" style="stop-color:#dbdbdb" offset="1"/></linearGradient><linearGradient id="linearGradient3067" x1="50.153" x2="25.291" y1="-3.632" y2="-4.3" gradientTransform="matrix(.87827 -1.3759e-15 1.3759e-15 .87827 5.3283 1.6502)" gradientUnits="userSpaceOnUse"><stop id="stop3063" style="stop-color:#fff" offset="0"/><stop id="stop3065" style="stop-color:#000" offset="1"/></linearGradient><linearGradient id="linearGradient3083" x1="38.228" x2="37.535" y1="13.603" y2="6.629" gradientTransform="matrix(.87827 0 0 .87827 2.8475 5.5887)" gradientUnits="userSpaceOnUse"><stop id="stop3079" style="stop-color:#98a0a9" offset="0"/><stop id="stop3081" style="stop-color:#c3d0dd" offset="1"/></linearGradient><linearGradient id="linearGradient3093" x1="9.75" x2="16.915" y1="32.284" y2="39.443" gradientTransform="matrix(.87827 0 0 .87827 2.537 4.9677)" gradientUnits="userSpaceOnUse"><stop id="stop3089" style="stop-color:#3465a4" offset="0"/><stop id="stop3095" style="stop-color:#9fbce1" offset="0"/><stop id="stop2242" style="stop-color:#6b95ca" offset="0"/><stop id="stop2244" style="stop-color:#3d6aa5" offset=".75"/><stop id="stop3091" style="stop-color:#386eb4" offset="1"/></linearGradient><linearGradient id="linearGradient2263" x1="12.005" x2="10.651" y1="35.688" y2="33.195" gradientTransform="matrix(1.0073 -.026365 .026365 1.0073 1.5934 .079191)" gradientUnits="userSpaceOnUse"><stop id="stop2259" style="stop-color:#fff" offset="0"/><stop id="stop2261" style="stop-color:#fff;stop-opacity:0" offset="1"/></linearGradient><linearGradient id="linearGradient2271" x1="14.018" x2="15.416" y1="36.943" y2="38.268" gradientTransform="matrix(.87810 -.017324 .017324 .87810 2.1637 4.0679)" gradientUnits="userSpaceOnUse"><stop id="stop2267" style="stop-color:#000" offset="0"/><stop id="stop2269" style="stop-color:#000;stop-opacity:0" offset="1"/></linearGradient><linearGradient id="linearGradient2256" x1="31.177" x2="40.859" y1="19.822" y2="9.657" gradientUnits="userSpaceOnUse"><stop id="stop2252" style="stop-color:#fff" offset="0"/><stop id="stop2254" style="stop-color:#fff;stop-opacity:0" offset="1"/></linearGradient><radialGradient id="radialGradient2260" cx="24.812" cy="39.125" r="17.688" gradientTransform="matrix(1 0 0 .37456 7.2728e-15 24.47)" gradientUnits="userSpaceOnUse" xlink:href="#linearGradient3041"/></defs><g id="layer1"><path id="path2258" style="opacity:.19886;color:#000;fill:url(#radialGradient2260)" d="m42.5 39.125a17.688 6.625 0 1 1 -35.375 0 17.688 6.625 0 1 1 35.375 0z" transform="matrix(.75112 0 0 .57870 17.041 19.363)"/><path id="path3039" style="opacity:.3125;color:#000;fill:url(#radialGradient3047)" d="m42.5 39.125a17.688 6.625 0 1 1 -35.375 0 17.688 6.625 0 1 1 35.375 0z" transform="matrix(.83607 0 0 .68544 -7.9596 15.718)"/><path id="path2140" style="color:#000;stroke:#888a85;fill:url(#linearGradient3055)" d="m17.907 21.216l18.992 19.431c0.769 0.879 3.204 1.557 4.831 0 1.571-1.503 1.207-3.622-0.33-5.159l-18.224-19.542c2.25-6.2499-2.304-11.5-8.179-10.374l-1.262 1.1522 3.952 3.7328 0.22 3.293-2.951 2.694-3.527-0.388-3.6224-3.403-1.2701 1.254c-0.5908 5.642 5.3075 10.684 11.37 7.309z"/><path id="path3057" style="opacity:.42614;color:#000;stroke:#fff;fill:none" d="m18.117 19.94l19.203 20.028c0.595 0.68 2.48 1.205 3.74 0 1.216-1.164 0.935-2.805-0.255-3.995l-18.492-19.621c1.5-6.4998-1.859-10.004-6.859-9.8795l-0.27 0.2734 3.603 3.2363 0.13 4.1818-3.614 3.298-4.242-0.458-3.1764-2.991-0.3527 0.43c-0.3125 5.969 6.4921 8.685 10.585 5.497z"/><rect id="rect3059" style="opacity:.17045;color:#000;stroke:url(#linearGradient3067);fill:none" width="23.268" height="2.055" x="28.185" y="-2.618" rx=".884" ry=".884" transform="rotate(45.738)"/><path id="path2144" style="color:#000;stroke:#878f9d;fill:url(#linearGradient3083)" d="m22.499 30.125c0.833-0.714 13.284-13.448 13.284-13.448l3.074-0.22 4.83-6.6965-4.024-3.5852-6.258 5.3797v3.074l-12.735 13.229c-0.604 0.603 1.06 2.926 1.829 2.267z"/><path id="path3085" style="opacity:.53977;color:#000;stroke:url(#linearGradient2256);fill:none" d="m22.402 29.085c0.647-0.554 13.024-13.229 13.024-13.229l2.929-0.248 4.214-5.6624-2.89-2.549-5.476 4.7174 0.155 2.851-12.676 13.292c-0.469 0.469 0.124 1.34 0.72 0.828z"/><path id="path2142" style="color:#000;stroke:#204a87;fill:url(#linearGradient3093)" d="m8.4653 43.612c1.3166 1.465 4.9737 2.128 6.5957-0.71 0.707-1.238 2.094-4.703 8.281-10.272 1.039-0.934 2.14-3.071 1.207-4.223l-2.416-2.416c-0.988-1.098-3.734-0.585-4.861 0.951-3.359 4.596-8.8459 8.255-10.083 8.697-2.3682 0.846-2.1017 4.336-0.5351 5.996l1.8114 1.977z"/><path id="path2146" style="color:#000;stroke:#a1a1a1;stroke-width:1.1386;fill:#fff" d="m43.25 37.5a1.375 1.375 0 1 1 -2.75 0 1.375 1.375 0 1 1 2.75 0z" transform="matrix(.87827 0 0 .87827 2.4272 5.0775)"/><path id="path3101" style="opacity:.60227;color:#000;fill:#fff" d="m20.771 28.201a1.7678 1.7678 0 1 1 -3.535 0 1.7678 1.7678 0 1 1 3.535 0z" transform="matrix(.57088 0 0 .57088 9.1548 11.251)"/><path id="path3103" style="stroke-linejoin:round;color:#000;stroke:url(#linearGradient2263);stroke-linecap:round;stroke-width:2.2945;fill:none" d="m18.679 29.625s-7.17 7.299-10.529 8.537"/><path id="path2270" style="opacity:.19886;color:#000;stroke:#fff;fill:none" d="m8.806 42.487c1.441 1.745 4.6 2.161 5.591-0.371 0.681-1.739 3.334-5.666 8.198-10.043 0.817-0.735 1.682-2.415 0.948-3.321l-1.898-1.898c-0.777-0.864-2.936-0.461-3.822 0.747-2.64 3.613-8.4832 8.34-9.8956 8.806-2.1868 0.721-1.777 3.221-0.5454 4.526l1.424 1.554z"/><path id="path2247" style="opacity:.27841;stroke-linejoin:round;color:#000;stroke:url(#linearGradient2271);stroke-linecap:round;stroke-width:2.2945;fill:none" d="m20.825 31.261s-7.323 6.617-8.914 10.86"/></g><metadata/></svg>